<?xml version="1.0" encoding="UTF-8" standalone="no"?>
<!-- Created with Inkscape (http://www.inkscape.org/) -->

<svg
   width="110.18352mm"
   height="108.01671mm"
   viewBox="0 0 110.18352 108.01671"
   version="1.1"
   id="svg1"
   inkscape:version="1.4.2 (f4327f4, 2025-05-13)"
   sodipodi:docname="lightbulb1v.svg"
   xmlns:inkscape="http://www.inkscape.org/namespaces/inkscape"
   xmlns:sodipodi="http://sodipodi.sourceforge.net/DTD/sodipodi-0.dtd"
   xmlns="http://www.w3.org/2000/svg"
   xmlns:svg="http://www.w3.org/2000/svg">
  <sodipodi:namedview
     id="namedview1"
     pagecolor="#505050"
     bordercolor="#eeeeee"
     borderopacity="1"
     inkscape:showpageshadow="0"
     inkscape:pageopacity="0"
     inkscape:pagecheckerboard="0"
     inkscape:deskcolor="#505050"
     inkscape:document-units="mm"
     inkscape:zoom="1.4378367"
     inkscape:cx="247.24644"
     inkscape:cy="172.82908"
     inkscape:window-width="1920"
     inkscape:window-height="1046"
     inkscape:window-x="-11"
     inkscape:window-y="-11"
     inkscape:window-maximized="1"
     inkscape:current-layer="g14"
     showguides="false"
     showgrid="false" />
  <defs
     id="defs1">
    <inkscape:path-effect
       effect="offset"
       id="path-effect4"
       is_visible="true"
       lpeversion="1.3"
       linejoin_type="miter"
       unit="mm"
       offset="3.3"
       miter_limit="4"
       attempt_force_join="false"
       update_on_knot_move="true" />
    <inkscape:path-effect
       effect="fillet_chamfer"
       id="path-effect3"
       is_visible="true"
       lpeversion="1"
       nodesatellites_param="F,0,0,1,0,9.9999998,0,1 @ F,0,0,1,0,9.9999998,0,1 @ F,0,0,1,0,9.9999998,0,1 @ F,0,0,1,0,9.9999998,0,1"
       radius="1"
       unit="cm"
       method="auto"
       mode="F"
       chamfer_steps="1"
       flexible="false"
       use_knot_distance="true"
       apply_no_radius="true"
       apply_with_radius="true"
       only_selected="false"
       hide_knots="false" />
    <inkscape:path-effect
       effect="fillet_chamfer"
       id="path-effect3-5"
       is_visible="true"
       lpeversion="1"
       nodesatellites_param="F,0,0,1,0,9.9999998,0,1 @ F,0,0,1,0,9.9999998,0,1 @ F,0,0,1,0,9.9999998,0,1 @ F,0,0,1,0,9.9999998,0,1"
       radius="1"
       unit="cm"
       method="auto"
       mode="F"
       chamfer_steps="1"
       flexible="false"
       use_knot_distance="true"
       apply_no_radius="true"
       apply_with_radius="true"
       only_selected="false"
       hide_knots="false" />
  </defs>
  <g
     inkscape:label="Off Bulb"
     inkscape:groupmode="layer"
     id="layer1"
     style="display:inline"
     transform="translate(-49.908034,-55.572273)">
    <path
       id="path1"
       style="fill:#ffffff;stroke-width:0.262469"
       d="m 97.039555,70.293901 a 9.9999998,9.9999998 0 0 0 -9.999907,9.999906 V 91.944775 A 38.643124,37.999073 0 0 0 66.356673,125.59027 38.643124,37.999073 0 0 0 104.99979,163.58898 38.643124,37.999073 0 0 0 143.64291,125.59027 38.643124,37.999073 0 0 0 122.96045,91.944775 V 80.293807 a 9.9999998,9.9999998 0 0 0 -9.9999,-9.999906 z m 1.624707,3.868497 h 12.671578 a 7.9590608,9.1424929 0 0 1 7.95869,9.142595 V 94.516711 A 34.436596,34.004566 0 0 1 139.43645,125.45332 34.436596,34.004566 0 0 1 104.99979,159.45745 34.436596,34.004566 0 0 1 70.563652,125.45332 34.436596,34.004566 0 0 1 90.705058,94.516711 V 83.304993 a 7.9590608,9.1424929 0 0 1 7.959204,-9.142595 z" />
    <rect
       style="fill:#ffffff;stroke-width:0.210955"
       id="rect5"
       width="29.81041"
       height="4.0483251"
       x="90.094589"
       y="62.933086"
       ry="2.0241625" />
    <rect
       style="fill:#ffffff;stroke-width:0.210955"
       id="rect5-5"
       width="29.81041"
       height="4.0483251"
       x="90.094589"
       y="55.572273"
       ry="2.0241625" />
    <rect
       style="fill:#ffffff;stroke-width:365.001;stroke-dasharray:none"
       id="rect6"
       width="3.864306"
       height="19.137547"
       x="94.25769"
       y="97.803894"
       ry="1.2324469" />
    <rect
       style="fill:#ffffff;stroke-width:365.001;stroke-dasharray:none"
       id="rect6-9"
       width="3.864306"
       height="19.137547"
       x="112.24759"
       y="97.803894"
       ry="1.2324469" />
    <rect
       style="fill:#ffffff;stroke-width:462.778;stroke-dasharray:none"
       id="rect6-9-3"
       width="4.0351305"
       height="29.461628"
       x="116.18224"
       y="-124.49389"
       ry="1.8973117"
       transform="matrix(-0.03870805,0.99925056,-0.9998416,-0.01779818,0,0)" />
    <path
       style="baseline-shift:baseline;display:inline;overflow:visible;fill:#ffffff;fill-rule:evenodd;stroke-width:1.012;stroke-dasharray:none;enable-background:accumulate;stop-color:#000000"
       d="m 117.34969,131.74141 c 2.8534,-0.3804 5.43753,-2.39761 6.14108,-5.5419 0.74326,-3.32176 -1.11552,-7.06597 -4.64814,-7.73498 l -0.67737,3.80429 c 1.22534,0.23205 1.96499,1.73511 1.66812,3.06188 -0.42596,1.90367 -2.54936,2.98698 -4.42236,2.48403 -2.45229,-0.65852 -3.80686,-3.53753 -3.11627,-6.0696 0.44506,-1.63188 1.65681,-2.99192 3.19024,-3.68189 0.32898,-0.14804 0.25996,-0.17432 0.61106,-0.25713 v -3.9312 c -0.58231,0.13735 -1.57175,0.39987 -2.11178,0.64287 -2.51698,1.13254 -4.5292,3.35507 -5.3002,6.18197 -1.23373,4.52353 1.16243,9.61684 5.78097,10.85706 0.9513,0.25545 1.93352,0.3114 2.88465,0.1846 z"
       id="path8-4"
       sodipodi:nodetypes="ssccsssscccsss" />
    <path
       style="baseline-shift:baseline;display:inline;overflow:visible;fill:#ffffff;fill-rule:evenodd;stroke-width:1.012;stroke-dasharray:none;enable-background:accumulate;stop-color:#000000"
       d="m 92.982554,131.286 c -2.8534,-0.3804 -5.43753,-2.39761 -6.14108,-5.5419 -0.74326,-3.32176 1.11552,-7.06597 4.64814,-7.73498 l 0.67737,3.80429 c -1.22534,0.23205 -1.96499,1.73511 -1.66812,3.06188 0.42596,1.90367 2.54936,2.98698 4.42236,2.48403 2.45229,-0.65852 3.806858,-3.53753 3.11627,-6.0696 -0.44506,-1.63188 -1.65681,-2.99192 -3.19024,-3.68189 -0.32898,-0.14804 -0.25996,-0.17432 -0.61106,-0.25713 v -3.9312 c 0.58231,0.13735 1.57175,0.39987 2.11178,0.64287 2.516978,1.13254 4.529196,3.35507 5.300196,6.18197 1.23373,4.52353 -1.16243,9.61684 -5.780966,10.85706 -0.9513,0.25545 -1.93352,0.3114 -2.88465,0.1846 z"
       id="path8-4-8"
       sodipodi:nodetypes="ssccsssscccsss" />
  </g>
  <g
     inkscape:label="On Bulb"
     inkscape:groupmode="layer"
     id="g14"
     transform="translate(-49.908034,-55.572273)"
     style="display:none">
    <path
       id="path9"
       style="fill:#ffc146;fill-opacity:1;stroke-width:0.262469"
       d="m 97.039555,70.293901 a 9.9999998,9.9999998 0 0 0 -9.999907,9.999906 V 91.944775 A 38.643124,37.999073 0 0 0 66.356673,125.59027 38.643124,37.999073 0 0 0 104.99979,163.58898 38.643124,37.999073 0 0 0 143.64291,125.59027 38.643124,37.999073 0 0 0 122.96045,91.944775 V 80.293807 a 9.9999998,9.9999998 0 0 0 -9.9999,-9.999906 z m 1.624707,3.868497 h 12.671578 a 7.9590608,9.1424929 0 0 1 7.95869,9.142595 V 94.516711 A 34.436596,34.004566 0 0 1 139.43645,125.45332 34.436596,34.004566 0 0 1 104.99979,159.45745 34.436596,34.004566 0 0 1 70.563652,125.45332 34.436596,34.004566 0 0 1 90.705058,94.516711 V 83.304993 a 7.9590608,9.1424929 0 0 1 7.959204,-9.142595 z" />
    <rect
       style="fill:#ffc146;fill-opacity:1;stroke-width:0.210955"
       id="rect9"
       width="29.81041"
       height="4.0483251"
       x="90.094589"
       y="62.933086"
       ry="2.0241625" />
    <rect
       style="fill:#ffc146;fill-opacity:1;stroke-width:0.210955"
       id="rect10"
       width="29.81041"
       height="4.0483251"
       x="90.094589"
       y="55.572273"
       ry="2.0241625" />
    <rect
       style="fill:#ffc146;fill-opacity:1;stroke-width:365.001;stroke-dasharray:none"
       id="rect11"
       width="3.864306"
       height="19.137547"
       x="94.25769"
       y="97.803894"
       ry="1.2324469" />
    <rect
       style="fill:#ffc146;fill-opacity:1;stroke-width:365.001;stroke-dasharray:none"
       id="rect12"
       width="3.864306"
       height="19.137547"
       x="112.24759"
       y="97.803894"
       ry="1.2324469" />
    <rect
       style="fill:#ffc146;fill-opacity:1;stroke-width:462.778;stroke-dasharray:none"
       id="rect13"
       width="4.0351305"
       height="29.461628"
       x="116.18224"
       y="-124.49389"
       ry="1.8973117"
       transform="matrix(-0.03870805,0.99925056,-0.9998416,-0.01779818,0,0)" />
    <path
       style="baseline-shift:baseline;display:inline;overflow:visible;fill:#ffc146;fill-opacity:1;fill-rule:evenodd;stroke-width:1.012;stroke-dasharray:none;enable-background:accumulate;stop-color:#000000"
       d="m 117.34969,131.74141 c 2.8534,-0.3804 5.43753,-2.39761 6.14108,-5.5419 0.74326,-3.32176 -1.11552,-7.06597 -4.64814,-7.73498 l -0.67737,3.80429 c 1.22534,0.23205 1.96499,1.73511 1.66812,3.06188 -0.42596,1.90367 -2.54936,2.98698 -4.42236,2.48403 -2.45229,-0.65852 -3.80686,-3.53753 -3.11627,-6.0696 0.44506,-1.63188 1.65681,-2.99192 3.19024,-3.68189 0.32898,-0.14804 0.25996,-0.17432 0.61106,-0.25713 v -3.9312 c -0.58231,0.13735 -1.57175,0.39987 -2.11178,0.64287 -2.51698,1.13254 -4.5292,3.35507 -5.3002,6.18197 -1.23373,4.52353 1.16243,9.61684 5.78097,10.85706 0.9513,0.25545 1.93352,0.3114 2.88465,0.1846 z"
       id="path13"
       sodipodi:nodetypes="ssccsssscccsss" />
    <path
       style="baseline-shift:baseline;display:inline;overflow:visible;fill:#ffc146;fill-opacity:1;fill-rule:evenodd;stroke-width:1.012;stroke-dasharray:none;enable-background:accumulate;stop-color:#000000"
       d="m 92.982554,131.286 c -2.8534,-0.3804 -5.43753,-2.39761 -6.14108,-5.5419 -0.74326,-3.32176 1.11552,-7.06597 4.64814,-7.73498 l 0.67737,3.80429 c -1.22534,0.23205 -1.96499,1.73511 -1.66812,3.06188 0.42596,1.90367 2.54936,2.98698 4.42236,2.48403 2.45229,-0.65852 3.806858,-3.53753 3.11627,-6.0696 -0.44506,-1.63188 -1.65681,-2.99192 -3.19024,-3.68189 -0.32898,-0.14804 -0.25996,-0.17432 -0.61106,-0.25713 v -3.9312 c 0.58231,0.13735 1.57175,0.39987 2.11178,0.64287 2.516978,1.13254 4.529196,3.35507 5.300196,6.18197 1.23373,4.52353 -1.16243,9.61684 -5.780966,10.85706 -0.9513,0.25545 -1.93352,0.3114 -2.88465,0.1846 z"
       id="path14"
       sodipodi:nodetypes="ssccsssscccsss" />
    <rect
       style="fill:#ffc146;fill-opacity:1;stroke-width:0.210955"
       id="rect10-8-0"
       width="13.675757"
       height="4.0483246"
       x="146.58702"
       y="122.63698"
       ry="2.0241623"
       transform="rotate(0.078631)" />
    <rect
       style="fill:#ffc146;fill-opacity:1;stroke-width:0.210955"
       id="rect10-8-0-0"
       width="13.675757"
       height="4.0483246"
       x="110.39719"
       y="141.81491"
       ry="2.0241623"
       transform="rotate(-14.921369)" />
    <rect
       style="fill:#ffc146;fill-opacity:1;stroke-width:0.210955"
       id="rect10-8-0-0-3"
       width="13.675757"
       height="4.0483246"
       x="176.13336"
       y="-99.126137"
       ry="2.0241623"
       transform="matrix(0.96628011,0.25749319,0.25749319,-0.96628011,0,0)" />
    <rect
       style="fill:#ffc146;fill-opacity:1;stroke-width:0.210955"
       id="rect10-8-0-0-3-1"
       width="13.675757"
       height="4.0483246"
       x="-28.214066"
       y="-153.5804"
       ry="2.0241623"
       transform="rotate(165.07863)" />
    <rect
       style="fill:#ffc146;fill-opacity:1;stroke-width:0.210955"
       id="rect10-8-0-0-4"
       width="13.675757"
       height="4.0483246"
       x="-92.521233"
       y="87.741447"
       ry="2.0241623"
       transform="matrix(-0.96628011,-0.25749319,-0.25749319,0.96628011,0,0)" />
    <rect
       style="fill:#ffc146;fill-opacity:1;stroke-width:0.210955"
       id="rect10-8-0-9"
       width="13.675757"
       height="4.0483246"
       x="50.079346"
       y="122.76942"
       ry="2.0241623"
       transform="rotate(0.078631)" />
  </g>
</svg>
